# xmcd
# Copyright (C) 1995-1998 Ti Kan
#
# Track frame offsets:
#       150
#       16313
#       30899
#
# Disc length: 652 seconds
#
# Revision: 0
# Processed by: cddbd v1.5.2PL0 Copyright (c) Steve Scherf et al.
# Submitted via: CD-Import v1.0
#
DISCID=12028a03
DTITLE=Ten Ten Darling - Ten Ten Darling
DYEAR=1900
DGENRE=
TTITLE0=The Witch
TTITLE1=Mogador
TTITLE2=Walk On My Own
EXTD=
EXTT0=
EXTT1=
EXTT2=
PLAYORDER=
